<svg width="1440" height="1050" viewBox="0 0 1440 1050" fill="none" xmlns="http://www.w3.org/2000/svg">
<g clip-path="url(#clip0_285_4094)">
<path d="M1440 0H0V1050H1440V0Z" fill="url(#paint0_linear_285_4094)"/>
<g filter="url(#filter0_d_285_4094)">
<path d="M768.977 565.965C755.472 568.751 754.544 564.179 754.544 564.179C768.803 543.021 774.763 516.164 769.619 509.591C755.586 491.661 731.294 500.141 730.889 500.361L730.758 500.384C728.09 499.83 725.104 499.5 721.748 499.445C715.638 499.345 711.002 501.047 707.485 503.715C707.485 503.715 664.15 485.863 666.166 526.167C666.595 534.742 678.456 591.046 692.603 574.039C697.774 567.821 702.77 562.563 702.77 562.563C705.251 564.211 708.222 565.052 711.336 564.75L711.578 564.545C711.503 565.317 711.537 566.072 711.675 566.966C708.03 571.038 709.101 571.753 701.816 573.253C694.444 574.772 698.774 577.477 701.602 578.184C705.03 579.041 712.96 580.255 718.319 572.754L718.105 573.61C719.533 574.754 720.536 581.05 720.368 586.757C720.2 592.464 720.088 596.383 721.213 599.443C722.338 602.504 723.459 609.39 733.037 607.338C741.04 605.623 745.187 601.179 745.764 593.765C746.173 588.495 747.1 589.274 747.158 584.562L747.902 582.331C748.759 575.187 748.038 572.882 752.968 573.954L754.166 574.059C757.795 574.224 762.545 573.476 765.332 572.18C771.335 569.394 774.895 564.743 768.977 565.965Z" fill="#336791"/>
<path d="M718.897 570.061C718.525 583.354 718.991 596.741 720.292 599.994C721.593 603.247 724.379 609.575 733.957 607.523C741.959 605.808 744.871 602.488 746.134 595.16C747.065 589.768 748.859 574.795 749.089 571.727" stroke="white" stroke-width="3.34656" stroke-linecap="round" stroke-linejoin="round"/>
<path d="M707.416 503.418C707.416 503.418 664.052 485.694 666.068 525.999C666.497 534.573 678.359 590.879 692.506 573.872C697.675 567.653 702.351 562.775 702.351 562.775" stroke="white" stroke-width="3.34656" stroke-linecap="round" stroke-linejoin="round"/>
<path d="M730.84 500.183C729.339 500.654 754.962 490.816 769.524 509.423C774.668 515.996 768.707 542.853 754.449 564.012" stroke="white" stroke-width="3.34656" stroke-linecap="round" stroke-linejoin="round"/>
<path d="M754.451 564.012C754.451 564.012 755.38 568.585 768.885 565.798C774.802 564.576 771.241 569.227 765.24 572.014C760.315 574.3 749.273 574.886 749.092 571.727C748.628 563.578 754.904 566.054 754.451 564.012ZM754.451 564.012C754.041 562.173 751.235 560.368 749.378 555.867C747.758 551.938 727.15 521.811 755.093 526.285C756.117 526.073 747.805 499.706 721.654 499.277C695.509 498.848 696.367 531.43 696.367 531.43" stroke="white" stroke-width="3.34656" stroke-linecap="round" stroke-linejoin="bevel"/>
<path d="M711.58 566.799C707.935 570.87 709.007 571.585 701.72 573.085C694.348 574.605 698.68 577.309 701.506 578.016C704.934 578.874 712.865 580.088 718.223 572.585C719.855 570.301 718.214 566.655 715.972 565.726C714.889 565.278 713.441 564.715 711.58 566.799Z" stroke="white" stroke-width="3.34656" stroke-linecap="round" stroke-linejoin="round"/>
<path d="M711.339 566.727C710.972 564.333 712.126 561.485 713.362 558.152C715.221 553.151 719.509 548.15 716.079 532.287C713.522 520.467 696.374 529.827 696.363 531.43C696.352 533.032 697.139 539.554 696.076 547.149C694.691 557.059 702.382 565.44 711.24 564.583" stroke="white" stroke-width="3.34656" stroke-linecap="round" stroke-linejoin="round"/>
<path d="M707.258 531.19C707.18 531.737 708.26 533.198 709.668 533.393C711.073 533.589 712.276 532.448 712.352 531.901C712.428 531.353 711.35 530.75 709.942 530.554C708.536 530.358 707.332 530.644 707.258 531.19Z" fill="white" stroke="white" stroke-width="1.11551"/>
<path d="M750.06 530.074C750.137 530.621 749.059 532.082 747.651 532.277C746.244 532.473 745.042 531.332 744.965 530.785C744.89 530.237 745.969 529.634 747.375 529.438C748.782 529.242 749.984 529.528 750.06 530.074Z" fill="white" stroke="white" stroke-width="0.557756"/>
<path d="M755.091 526.285C755.323 530.579 754.166 533.504 754.02 538.075C753.805 544.719 757.188 552.324 752.09 559.938" stroke="white" stroke-width="3.34656" stroke-linecap="round" stroke-linejoin="round"/>
</g>
<g filter="url(#filter1_d_285_4094)">
<path d="M189.251 302.848C195.282 302.848 200.171 297.959 200.171 291.928C200.171 285.897 195.282 281.009 189.251 281.009C183.221 281.009 178.332 285.897 178.332 291.928C178.332 297.959 183.221 302.848 189.251 302.848Z" fill="#61DAFB"/>
<path d="M189.256 314.3C221.616 314.3 247.848 304.284 247.848 291.928C247.848 279.573 221.616 269.557 189.256 269.557C156.897 269.557 130.664 279.573 130.664 291.928C130.664 304.284 156.897 314.3 189.256 314.3Z" stroke="#61DAFB" stroke-width="5.32656"/>
<path d="M169.881 303.114C186.061 331.138 207.852 348.848 218.552 342.67C229.252 336.493 224.81 308.767 208.63 280.742C192.45 252.718 170.66 235.008 159.96 241.186C149.26 247.364 153.702 275.09 169.881 303.114Z" stroke="#61DAFB" stroke-width="5.32656"/>
<path d="M169.882 280.742C153.702 308.767 149.26 336.493 159.96 342.67C170.66 348.848 192.451 331.138 208.631 303.114C224.81 275.09 229.253 247.364 218.552 241.186C207.852 235.008 186.062 252.718 169.882 280.742Z" stroke="#61DAFB" stroke-width="5.32656"/>
</g>
<g filter="url(#filter2_d_285_4094)">
<path d="M1310 244V314H1275V348.999H1205V314V278.999H1240V244H1310Z" fill="#9DD6E3"/>
<path d="M1205 348.998H1240V313.998H1205V348.998Z" fill="#3F72AB"/>
<path d="M1275 314H1310V278.999H1275V314Z" fill="#00A9D1"/>
<path d="M1240 279H1275V244H1240V279Z" fill="#00A9D1"/>
<path d="M1240 313.999H1275V278.999H1240V313.999Z" fill="#2191C4"/>
<path d="M1275 279H1310V244H1275V279Z" fill="#3F72AB"/>
</g>
<g filter="url(#filter3_d_285_4094)">
<path d="M233.355 107H145.645C139.766 107 135 111.766 135 117.645V205.355C135 211.234 139.766 216 145.645 216H233.355C239.234 216 244 211.234 244 205.355V117.645C244 111.766 239.234 107 233.355 107Z" fill="#3178C6"/>
<path d="M233.355 107H145.645C139.766 107 135 111.766 135 117.645V205.355C135 211.234 139.766 216 145.645 216H233.355C239.234 216 244 211.234 244 205.355V117.645C244 111.766 239.234 107 233.355 107Z" fill="#3178C6"/>
<path fill-rule="evenodd" clip-rule="evenodd" d="M202.473 193.737V204.394C204.206 205.282 206.255 205.948 208.621 206.392C210.986 206.837 213.479 207.059 216.1 207.059C218.655 207.059 221.081 206.814 223.38 206.326C225.679 205.837 227.695 205.033 229.428 203.911C231.16 202.79 232.532 201.325 233.543 199.515C234.553 197.705 235.059 195.469 235.059 192.804C235.059 190.873 234.77 189.18 234.192 187.725C233.615 186.271 232.782 184.978 231.693 183.845C230.605 182.713 229.3 181.697 227.779 180.798C226.257 179.899 224.541 179.049 222.631 178.25C221.232 177.673 219.977 177.112 218.866 176.568C217.755 176.024 216.811 175.469 216.034 174.903C215.256 174.337 214.657 173.737 214.235 173.105C213.813 172.472 213.602 171.756 213.602 170.956C213.602 170.224 213.79 169.563 214.168 168.975C214.546 168.386 215.079 167.881 215.767 167.459C216.456 167.038 217.3 166.71 218.299 166.477C219.299 166.244 220.41 166.127 221.631 166.127C222.52 166.127 223.458 166.194 224.447 166.327C225.435 166.46 226.429 166.666 227.429 166.943C228.428 167.221 229.4 167.571 230.344 167.992C231.288 168.414 232.16 168.903 232.959 169.458V159.5C231.338 158.878 229.567 158.417 227.645 158.118C225.724 157.818 223.519 157.668 221.032 157.668C218.499 157.668 216.1 157.94 213.835 158.484C211.569 159.028 209.576 159.877 207.854 161.032C206.133 162.186 204.772 163.657 203.773 165.445C202.773 167.232 202.273 169.369 202.273 171.856C202.273 175.031 203.19 177.74 205.022 179.982C206.855 182.224 209.637 184.123 213.368 185.677C214.834 186.277 216.201 186.865 217.467 187.442C218.733 188.02 219.827 188.619 220.748 189.241C221.67 189.862 222.398 190.54 222.931 191.272C223.464 192.005 223.73 192.837 223.73 193.77C223.73 194.458 223.564 195.097 223.231 195.685C222.897 196.274 222.392 196.784 221.715 197.217C221.037 197.65 220.193 197.989 219.182 198.233C218.172 198.477 216.989 198.599 215.634 198.599C213.324 198.599 211.036 198.194 208.77 197.384C206.505 196.573 204.406 195.358 202.473 193.737ZM184.557 167.478H198.229V158.732H160.121V167.478H173.726V206.42H184.557V167.478Z" fill="white"/>
</g>
<g filter="url(#filter4_d_285_4094)">
<path d="M665 138.089V183.091C665 188.658 667.97 193.808 672.795 196.589L711.767 219.093C714.137 220.462 716.825 221.183 719.561 221.183C722.298 221.183 724.986 220.462 727.356 219.093L766.328 196.589C768.698 195.221 770.666 193.254 772.034 190.884C773.402 188.515 774.122 185.827 774.122 183.091V138.089C774.122 132.519 771.153 127.371 766.328 124.589L727.356 102.09C724.986 100.721 722.298 100 719.561 100C716.825 100 714.136 100.721 711.767 102.09L672.795 124.589C670.425 125.957 668.457 127.924 667.088 130.294C665.72 132.664 665 135.352 665 138.089Z" fill="url(#paint1_linear_285_4094)"/>
<g style="mix-blend-mode:screen" filter="url(#filter5_ddddd_285_4094)">
<path d="M692.282 152.801V168.392C692.281 168.904 692.382 169.411 692.577 169.885C692.773 170.358 693.06 170.788 693.422 171.15C693.784 171.512 694.214 171.8 694.688 171.995C695.161 172.191 695.668 172.291 696.181 172.29C696.693 172.29 697.2 172.19 697.673 171.994C698.146 171.798 698.576 171.511 698.938 171.149C699.3 170.787 699.587 170.357 699.783 169.884C699.978 169.411 700.079 168.904 700.079 168.392C700.079 167.358 700.489 166.367 701.22 165.636C701.951 164.905 702.942 164.495 703.976 164.495C705.009 164.495 706.001 164.905 706.731 165.636C707.462 166.367 707.873 167.358 707.873 168.392C707.873 171.493 706.641 174.467 704.448 176.659C702.256 178.852 699.282 180.084 696.181 180.084C693.08 180.084 690.106 178.852 687.913 176.659C685.72 174.467 684.488 171.493 684.488 168.392V152.804C684.488 149.703 685.72 146.729 687.913 144.536C690.106 142.343 693.08 141.111 696.181 141.111C699.282 141.111 702.256 142.343 704.448 144.536C706.641 146.729 707.873 149.703 707.873 152.804C707.873 153.837 707.462 154.828 706.731 155.559C706.001 156.29 705.009 156.701 703.976 156.701C702.942 156.701 701.951 156.29 701.22 155.559C700.489 154.828 700.079 153.837 700.079 152.804C700.079 151.77 699.668 150.779 698.937 150.048C698.206 149.317 697.215 148.907 696.182 148.907C695.148 148.907 694.157 149.317 693.426 150.048C692.695 150.779 692.285 151.77 692.285 152.804L692.282 152.801ZM754.64 168.392C754.64 168.904 754.54 169.411 754.344 169.884C754.148 170.358 753.861 170.787 753.499 171.15C753.137 171.512 752.707 171.799 752.234 171.994C751.761 172.19 751.254 172.291 750.742 172.29H746.843V176.186C746.843 177.221 746.434 178.212 745.702 178.942C745.34 179.305 744.911 179.593 744.438 179.789C743.965 179.986 743.458 180.087 742.946 180.087C742.434 180.087 741.927 179.986 741.454 179.789C740.982 179.593 740.552 179.305 740.191 178.942C739.461 178.211 739.05 177.22 739.049 176.186V172.29H731.255V176.186C731.256 176.698 731.156 177.206 730.961 177.679C730.765 178.153 730.478 178.583 730.116 178.945C729.754 179.307 729.324 179.594 728.85 179.79C728.377 179.985 727.869 180.085 727.357 180.084C726.845 180.085 726.338 179.985 725.864 179.789C725.391 179.594 724.961 179.306 724.599 178.944C724.237 178.582 723.95 178.152 723.755 177.679C723.56 177.205 723.46 176.698 723.461 176.186V172.29H719.561C718.527 172.29 717.536 171.879 716.805 171.149C716.074 170.418 715.664 169.426 715.664 168.393C715.664 167.359 716.074 166.368 716.805 165.637C717.536 164.906 718.527 164.496 719.561 164.496H723.459V156.702H719.561C718.527 156.702 717.536 156.291 716.805 155.56C716.074 154.83 715.664 153.838 715.664 152.805C715.664 151.771 716.074 150.78 716.805 150.049C717.536 149.318 718.527 148.908 719.561 148.908H723.459V145.01C723.459 143.976 723.869 142.985 724.6 142.254C725.331 141.523 726.322 141.112 727.356 141.112C728.389 141.112 729.381 141.523 730.111 142.254C730.842 142.985 731.253 143.976 731.253 145.01V148.905H739.047V145.01C739.047 143.976 739.458 142.985 740.188 142.254C740.919 141.523 741.91 141.112 742.944 141.112C743.978 141.112 744.969 141.523 745.7 142.254C746.43 142.985 746.841 143.976 746.841 145.01V148.905H750.739C751.772 148.905 752.763 149.315 753.493 150.047C753.856 150.408 754.144 150.838 754.34 151.311C754.537 151.784 754.638 152.29 754.638 152.802C754.638 153.314 754.537 153.821 754.34 154.294C754.144 154.767 753.856 155.196 753.493 155.558C753.132 155.92 752.703 156.208 752.23 156.404C751.758 156.6 751.251 156.701 750.739 156.702H746.841V164.496H750.739C751.772 164.498 752.762 164.909 753.492 165.64C754.223 166.37 754.637 167.359 754.64 168.392ZM739.049 156.702H731.255V164.496H739.049V156.702Z" fill="white"/>
</g>
</g>
<g filter="url(#filter6_d_285_4094)">
<path d="M769.018 696.25L770.452 694.08L772.957 695.6L774.067 696.394C776.744 698.459 782.376 703.738 783.591 712.497C785.723 712.115 787.875 711.923 790.026 711.923C795.133 711.923 798.566 713.109 800.517 714.094L801.521 714.639L802.171 715.07L803.997 716.561L803.366 718.474C802.385 721.096 800.853 723.476 798.872 725.454C796.099 728.314 791.222 731.689 783.486 732.129L781.784 732.177H780.368C776.83 741.519 772.078 752.048 764.093 761.495C759.355 767.11 753.736 771.915 747.454 775.724C739.924 780.192 731.677 783.324 723.079 784.981C716.921 786.176 710.667 786.769 704.404 786.75C690.538 786.75 678.298 783.996 670.773 779.177C664.05 774.883 658.886 767.874 655.415 758.359C652.377 749.665 650.885 740.506 651.007 731.297C650.991 730.116 651.399 728.969 652.157 728.064C652.915 727.158 653.973 726.555 655.138 726.363L655.788 726.315H756.577L757.457 726.248L758.881 726.095C761.329 725.77 765.059 725.043 767.679 723.513C764.542 718.321 763.653 712.249 765.116 705.784C765.729 703.088 766.693 700.484 767.985 698.039L769.018 696.25ZM678.633 708.184L679.015 708.251C679.19 708.317 679.347 708.422 679.475 708.558C679.603 708.694 679.697 708.857 679.752 709.036L679.809 709.418V721.993L679.752 722.385C679.696 722.564 679.6 722.728 679.471 722.865C679.342 723.001 679.182 723.105 679.006 723.169L678.633 723.226H665.131C664.879 723.223 664.635 723.14 664.434 722.988C664.233 722.837 664.085 722.626 664.012 722.385L663.945 722.002V709.409L664.012 709.026C664.066 708.845 664.161 708.679 664.291 708.541C664.42 708.403 664.58 708.297 664.758 708.232L665.131 708.175L678.633 708.184ZM697.251 708.184L697.624 708.251C697.801 708.316 697.96 708.42 698.089 708.556C698.219 708.692 698.315 708.856 698.37 709.036L698.427 709.418V721.993L698.36 722.385C698.305 722.564 698.209 722.728 698.08 722.865C697.95 723.001 697.791 723.105 697.614 723.169L697.242 723.226H683.739C683.488 723.221 683.245 723.138 683.044 722.986C682.843 722.835 682.695 722.625 682.62 722.385L682.554 722.012V709.418C682.552 709.162 682.628 708.912 682.774 708.701C682.919 708.491 683.126 708.33 683.366 708.242L683.739 708.175L697.251 708.184ZM716.147 708.184L716.52 708.251C716.694 708.317 716.852 708.422 716.979 708.558C717.107 708.694 717.202 708.857 717.256 709.036L717.323 709.418V721.993L717.256 722.385C717.201 722.564 717.105 722.728 716.975 722.865C716.846 723.001 716.686 723.105 716.51 723.169L716.137 723.226H702.635C702.383 723.223 702.139 723.14 701.938 722.988C701.737 722.837 701.589 722.626 701.516 722.385L701.459 722.002V709.409L701.516 709.026C701.57 708.845 701.665 708.679 701.795 708.541C701.924 708.403 702.084 708.297 702.262 708.232L702.635 708.175L716.147 708.184ZM734.813 708.184L735.186 708.251C735.362 708.316 735.521 708.42 735.651 708.556C735.78 708.692 735.876 708.856 735.931 709.036L735.998 709.418V721.993C736 722.249 735.923 722.499 735.778 722.709C735.632 722.92 735.426 723.08 735.186 723.169L734.803 723.226H721.31C721.059 723.223 720.815 723.14 720.614 722.988C720.412 722.837 720.265 722.626 720.192 722.385L720.134 722.002V709.409L720.192 709.026C720.245 708.845 720.341 708.679 720.471 708.541C720.6 708.403 720.76 708.297 720.937 708.232L721.32 708.175H734.822L734.813 708.184ZM753.651 708.184L754.024 708.251C754.2 708.316 754.359 708.42 754.489 708.556C754.618 708.692 754.714 708.856 754.77 709.036L754.827 709.418V721.993C754.829 722.249 754.752 722.499 754.607 722.709C754.461 722.92 754.254 723.08 754.014 723.169L753.641 723.226H740.139C739.887 723.223 739.643 723.14 739.442 722.988C739.241 722.837 739.093 722.626 739.02 722.385L738.963 722.002V709.409L739.02 709.026C739.074 708.845 739.17 708.679 739.299 708.541C739.429 708.403 739.588 708.297 739.766 708.232L740.148 708.175H753.641L753.651 708.184ZM697.232 690.092L697.614 690.159C697.788 690.224 697.945 690.327 698.072 690.461C698.2 690.595 698.295 690.757 698.351 690.934L698.418 691.326V703.9C698.42 704.156 698.343 704.407 698.197 704.617C698.052 704.828 697.845 704.988 697.605 705.077L697.232 705.144H683.739C683.486 705.138 683.24 705.051 683.039 704.896C682.838 704.741 682.691 704.527 682.62 704.283L682.554 703.9V691.326C682.553 691.072 682.631 690.823 682.777 690.615C682.922 690.406 683.128 690.247 683.366 690.159L683.739 690.092H697.232ZM716.127 690.092L716.51 690.159C716.684 690.224 716.84 690.327 716.968 690.461C717.096 690.595 717.191 690.757 717.246 690.934L717.313 691.326V703.9C717.315 704.156 717.238 704.407 717.093 704.617C716.947 704.828 716.74 704.988 716.5 705.077L716.127 705.144H702.635C702.381 705.138 702.136 705.051 701.935 704.896C701.734 704.741 701.587 704.527 701.516 704.283L701.459 703.9V691.326L701.516 690.943C701.571 690.764 701.667 690.6 701.797 690.464C701.926 690.328 702.085 690.223 702.262 690.159L702.635 690.092H716.127ZM734.803 690.092C735.319 690.092 735.759 690.446 735.922 690.934L735.989 691.326V703.9C735.991 704.156 735.914 704.407 735.768 704.617C735.623 704.828 735.416 704.988 735.176 705.077L734.793 705.144H721.31C721.057 705.138 720.811 705.051 720.61 704.896C720.409 704.741 720.263 704.527 720.192 704.283L720.134 703.9V691.326L720.192 690.943C720.247 690.764 720.343 690.6 720.472 690.464C720.602 690.328 720.761 690.223 720.937 690.159L721.32 690.092H734.822H734.803ZM734.803 672C735.319 672 735.759 672.354 735.922 672.842L735.989 673.224V685.808C735.991 686.064 735.914 686.314 735.768 686.525C735.623 686.735 735.416 686.896 735.176 686.984L734.793 687.042H721.31C721.059 687.038 720.815 686.955 720.614 686.804C720.412 686.653 720.265 686.441 720.192 686.2L720.134 685.818V673.224L720.192 672.842C720.247 672.662 720.343 672.498 720.472 672.362C720.602 672.226 720.761 672.122 720.937 672.057L721.31 672H734.813H734.803Z" fill="#2396ED"/>
</g>
<g filter="url(#filter7_d_285_4094)">
<path d="M778 238H662V354H778V238Z" fill="#512BD4"/>
<path d="M682.675 312.111C681.855 312.111 681.158 311.838 680.584 311.291C680.01 310.73 679.723 310.065 679.723 309.294C679.723 308.509 680.01 307.836 680.584 307.276C681.158 306.715 681.855 306.435 682.675 306.435C683.509 306.435 684.213 306.715 684.787 307.276C685.375 307.836 685.669 308.509 685.669 309.294C685.669 310.065 685.375 310.73 684.787 311.291C684.213 311.838 683.509 312.111 682.675 312.111Z" fill="white"/>
<path d="M715.462 311.649H710.13L696.084 289.489C695.729 288.929 695.435 288.347 695.203 287.744H695.08C695.189 288.389 695.244 289.77 695.244 291.886V311.649H690.527V281.5H696.207L709.782 303.134C710.356 304.031 710.725 304.648 710.889 304.984H710.971C710.834 304.185 710.766 302.833 710.766 300.926V281.5H715.462V311.649Z" fill="white"/>
<path d="M738.432 311.649H721.926V281.5H737.776V285.747H726.806V294.283H736.915V298.508H726.806V307.423H738.432V311.649Z" fill="white"/>
<path d="M761.889 285.747H753.441V311.649H748.56V285.747H740.133V281.5H761.889V285.747Z" fill="white"/>
</g>
<g filter="url(#filter8_d_285_4094)">
<path d="M485.087 883.001H517.12L483.867 981.525C483.525 982.537 482.875 983.417 482.007 984.04C481.139 984.663 480.097 984.999 479.029 984.999H454.1C453.29 984.999 452.492 984.806 451.772 984.437C451.052 984.067 450.43 983.531 449.957 982.874C449.485 982.216 449.176 981.456 449.056 980.655C448.936 979.854 449.009 979.037 449.268 978.27L480.248 886.475C480.589 885.463 481.24 884.582 482.108 883.959C482.977 883.335 484.019 883.001 485.087 883.001Z" fill="url(#paint2_linear_285_4094)"/>
<path d="M531.637 949.084H480.842C480.37 949.084 479.908 949.225 479.518 949.491C479.127 949.756 478.825 950.133 478.652 950.573C478.479 951.012 478.442 951.493 478.546 951.954C478.65 952.414 478.891 952.833 479.236 953.155L511.876 983.62C512.826 984.506 514.078 984.999 515.377 984.999H544.14L531.637 949.084Z" fill="#0078D4"/>
<path d="M485.093 883.001C484.012 882.997 482.959 883.339 482.086 883.976C481.213 884.613 480.567 885.513 480.242 886.543L449.311 978.186C449.035 978.956 448.948 979.781 449.058 980.591C449.168 981.402 449.472 982.174 449.943 982.842C450.415 983.511 451.041 984.055 451.767 984.431C452.494 984.806 453.301 985.001 454.119 984.999H479.691C480.643 984.829 481.533 984.409 482.27 983.782C483.007 983.155 483.565 982.344 483.886 981.431L490.054 963.252L512.087 983.803C513.01 984.567 514.169 984.989 515.367 984.999H544.022L531.454 949.084L494.817 949.093L517.24 883.001H485.093Z" fill="url(#paint3_linear_285_4094)"/>
<path d="M526 886.47C525.659 885.459 525.009 884.581 524.142 883.958C523.276 883.336 522.235 883.001 521.168 883.001H485.469C486.536 883.001 487.576 883.336 488.443 883.958C489.31 884.581 489.96 885.459 490.301 886.47L521.282 978.268C521.541 979.036 521.614 979.853 521.494 980.654C521.374 981.455 521.066 982.216 520.593 982.874C520.121 983.532 519.499 984.068 518.779 984.437C518.058 984.807 517.26 985 516.45 985H552.151C552.96 985 553.758 984.807 554.479 984.437C555.199 984.067 555.821 983.531 556.293 982.873C556.765 982.216 557.074 981.455 557.194 980.654C557.313 979.853 557.241 979.035 556.982 978.268L526 886.47Z" fill="url(#paint4_linear_285_4094)"/>
</g>
<path d="M561.121 319.121C562.293 317.95 562.293 316.05 561.121 314.879L542.029 295.787C540.858 294.615 538.958 294.615 537.787 295.787C536.615 296.958 536.615 298.858 537.787 300.029L554.757 317L537.787 333.971C536.615 335.142 536.615 337.042 537.787 338.213C538.958 339.385 540.858 339.385 542.029 338.213L561.121 319.121ZM278 320H559V314H278V320Z" fill="white"/>
<path d="M1177.12 319.121C1178.29 317.95 1178.29 316.05 1177.12 314.879L1158.03 295.787C1156.86 294.615 1154.96 294.615 1153.79 295.787C1152.62 296.958 1152.62 298.858 1153.79 300.029L1170.76 317L1153.79 333.971C1152.62 335.142 1152.62 337.042 1153.79 338.213C1154.96 339.385 1156.86 339.385 1158.03 338.213L1177.12 319.121ZM881 320H1175V314H881V320Z" fill="white"/>
<path d="M701.119 377.879C699.948 376.707 698.048 376.707 696.877 377.879L677.785 396.971C676.613 398.142 676.613 400.042 677.785 401.213C678.956 402.385 680.856 402.385 682.027 401.213L698.998 384.243L715.969 401.213C717.14 402.385 719.04 402.385 720.211 401.213C721.383 400.042 721.383 398.142 720.211 396.971L701.119 377.879ZM701.998 471V380H695.998V471H701.998Z" fill="white"/>
<path d="M275.879 278.879C274.707 280.05 274.707 281.95 275.879 283.121L294.971 302.213C296.142 303.385 298.042 303.385 299.213 302.213C300.385 301.042 300.385 299.142 299.213 297.971L282.243 281L299.213 264.029C300.385 262.858 300.385 260.958 299.213 259.787C298.042 258.615 296.142 258.615 294.971 259.787L275.879 278.879ZM278 284H559V278H278V284Z" fill="white"/>
<path d="M878.879 278.879C877.707 280.05 877.707 281.95 878.879 283.121L897.971 302.213C899.142 303.385 901.042 303.385 902.213 302.213C903.385 301.042 903.385 299.142 902.213 297.971L885.243 281L902.213 264.029C903.385 262.858 903.385 260.958 902.213 259.787C901.042 258.615 899.142 258.615 897.971 259.787L878.879 278.879ZM881 284H1175V278H881V284Z" fill="white"/>
<path d="M738.377 473.621C739.548 474.793 741.448 474.793 742.619 473.621L761.711 454.529C762.883 453.358 762.883 451.458 761.711 450.287C760.54 449.115 758.64 449.115 757.469 450.287L740.498 467.257L723.527 450.287C722.356 449.115 720.456 449.115 719.285 450.287C718.113 451.458 718.113 453.358 719.285 454.529L738.377 473.621ZM743.498 471.5V380.5H737.498V471.5H743.498Z" fill="white"/>
<path d="M907 826H99V832H907V826Z" fill="white"/>
<path d="M848 630H592V638H848V630Z" fill="white"/>
<path d="M99 451L99 826C99 827.657 100.343 829 102 829H104C105.657 829 107 827.657 107 826L107 451C107 449.343 105.657 448 104 448H102C100.343 448 99 449.343 99 451Z" fill="white"/>
<path d="M899 451V826C899 827.657 900.343 829 902 829H904C905.657 829 907 827.657 907 826V451C907 449.343 905.657 448 904 448H902C900.343 448 899 449.343 899 451Z" fill="white"/>
<path d="M840 172V629C840 630.657 841.343 632 843 632H845C846.657 632 848 630.657 848 629V172C848 170.343 846.657 169 845 169H843C841.343 169 840 170.343 840 172Z" fill="white"/>
<path d="M592 172V629C592 630.657 593.343 632 595 632H597C598.657 632 600 630.657 600 629V172C600 170.343 598.657 169 597 169H595C593.343 169 592 170.343 592 172Z" fill="white"/>
</g>
<defs>
<filter id="filter0_d_285_4094" x="624.267" y="480.052" width="189.384" height="193.392" filterUnits="userSpaceOnUse" color-interpolation-filters="sRGB">
<feFlood flood-opacity="0" result="BackgroundImageFix"/>
<feColorMatrix in="SourceAlpha" type="matrix" values="0 0 0 0 0 0 0 0 0 0 0 0 0 0 0 0 0 0 127 0" result="hardAlpha"/>
<feOffset dy="23.7863"/>
<feGaussianBlur stdDeviation="20.0306"/>
<feComposite in2="hardAlpha" operator="out"/>
<feColorMatrix type="matrix" values="0 0 0 0 0 0 0 0 0 0 0 0 0 0 0 0 0 0 0.16 0"/>
<feBlend mode="normal" in2="BackgroundImageFix" result="effect1_dropShadow_285_4094"/>
<feBlend mode="normal" in="SourceGraphic" in2="effect1_dropShadow_285_4094" result="shape"/>
</filter>
<filter id="filter1_d_285_4094" x="87.9388" y="221.019" width="202.634" height="189.391" filterUnits="userSpaceOnUse" color-interpolation-filters="sRGB">
<feFlood flood-opacity="0" result="BackgroundImageFix"/>
<feColorMatrix in="SourceAlpha" type="matrix" values="0 0 0 0 0 0 0 0 0 0 0 0 0 0 0 0 0 0 127 0" result="hardAlpha"/>
<feOffset dy="23.7863"/>
<feGaussianBlur stdDeviation="20.0306"/>
<feColorMatrix type="matrix" values="0 0 0 0 0 0 0 0 0 0 0 0 0 0 0 0 0 0 0.16 0"/>
<feBlend mode="normal" in2="BackgroundImageFix" result="effect1_dropShadow_285_4094"/>
<feBlend mode="normal" in="SourceGraphic" in2="effect1_dropShadow_285_4094" result="shape"/>
</filter>
<filter id="filter2_d_285_4094" x="1164.94" y="227.725" width="185.122" height="185.121" filterUnits="userSpaceOnUse" color-interpolation-filters="sRGB">
<feFlood flood-opacity="0" result="BackgroundImageFix"/>
<feColorMatrix in="SourceAlpha" type="matrix" values="0 0 0 0 0 0 0 0 0 0 0 0 0 0 0 0 0 0 127 0" result="hardAlpha"/>
<feOffset dy="23.7863"/>
<feGaussianBlur stdDeviation="20.0306"/>
<feComposite in2="hardAlpha" operator="out"/>
<feColorMatrix type="matrix" values="0 0 0 0 0 0 0 0 0 0 0 0 0 0 0 0 0 0 0.16 0"/>
<feBlend mode="normal" in2="BackgroundImageFix" result="effect1_dropShadow_285_4094"/>
<feBlend mode="normal" in="SourceGraphic" in2="effect1_dropShadow_285_4094" result="shape"/>
</filter>
<filter id="filter3_d_285_4094" x="94.9388" y="90.7251" width="189.122" height="189.122" filterUnits="userSpaceOnUse" color-interpolation-filters="sRGB">
<feFlood flood-opacity="0" result="BackgroundImageFix"/>
<feColorMatrix in="SourceAlpha" type="matrix" values="0 0 0 0 0 0 0 0 0 0 0 0 0 0 0 0 0 0 127 0" result="hardAlpha"/>
<feOffset dy="23.7863"/>
<feGaussianBlur stdDeviation="20.0306"/>
<feComposite in2="hardAlpha" operator="out"/>
<feColorMatrix type="matrix" values="0 0 0 0 0 0 0 0 0 0 0 0 0 0 0 0 0 0 0.16 0"/>
<feBlend mode="normal" in2="BackgroundImageFix" result="effect1_dropShadow_285_4094"/>
<feBlend mode="normal" in="SourceGraphic" in2="effect1_dropShadow_285_4094" result="shape"/>
</filter>
<filter id="filter4_d_285_4094" x="624.939" y="83.7251" width="189.243" height="201.305" filterUnits="userSpaceOnUse" color-interpolation-filters="sRGB">
<feFlood flood-opacity="0" result="BackgroundImageFix"/>
<feColorMatrix in="SourceAlpha" type="matrix" values="0 0 0 0 0 0 0 0 0 0 0 0 0 0 0 0 0 0 127 0" result="hardAlpha"/>
<feOffset dy="23.7863"/>
<feGaussianBlur stdDeviation="20.0306"/>
<feComposite in2="hardAlpha" operator="out"/>
<feColorMatrix type="matrix" values="0 0 0 0 0 0 0 0 0 0 0 0 0 0 0 0 0 0 0.16 0"/>
<feBlend mode="normal" in2="BackgroundImageFix" result="effect1_dropShadow_285_4094"/>
<feBlend mode="normal" in="SourceGraphic" in2="effect1_dropShadow_285_4094" result="shape"/>
</filter>
<filter id="filter5_ddddd_285_4094" x="670.842" y="132.018" width="97.4442" height="95.8295" filterUnits="userSpaceOnUse" color-interpolation-filters="sRGB">
<feFlood flood-opacity="0" result="BackgroundImageFix"/>
<feColorMatrix in="SourceAlpha" type="matrix" values="0 0 0 0 0 0 0 0 0 0 0 0 0 0 0 0 0 0 127 0" result="hardAlpha"/>
<feOffset/>
<feColorMatrix type="matrix" values="0 0 0 0 0 0 0 0 0 0 0 0 0 0 0 0 0 0 0.1 0"/>
<feBlend mode="normal" in2="BackgroundImageFix" result="effect1_dropShadow_285_4094"/>
<feColorMatrix in="SourceAlpha" type="matrix" values="0 0 0 0 0 0 0 0 0 0 0 0 0 0 0 0 0 0 127 0" result="hardAlpha"/>
<feOffset dy="2.27432"/>
<feGaussianBlur stdDeviation="5.68353"/>
<feColorMatrix type="matrix" values="0 0 0 0 0 0 0 0 0 0 0 0 0 0 0 0 0 0 0.1 0"/>
<feBlend mode="normal" in2="effect1_dropShadow_285_4094" result="effect2_dropShadow_285_4094"/>
<feColorMatrix in="SourceAlpha" type="matrix" values="0 0 0 0 0 0 0 0 0 0 0 0 0 0 0 0 0 0 127 0" result="hardAlpha"/>
<feOffset dy="9.09728"/>
<feGaussianBlur stdDeviation="4.54864"/>
<feColorMatrix type="matrix" values="0 0 0 0 0 0 0 0 0 0 0 0 0 0 0 0 0 0 0.09 0"/>
<feBlend mode="normal" in2="effect2_dropShadow_285_4094" result="effect3_dropShadow_285_4094"/>
<feColorMatrix in="SourceAlpha" type="matrix" values="0 0 0 0 0 0 0 0 0 0 0 0 0 0 0 0 0 0 127 0" result="hardAlpha"/>
<feOffset dy="20.4689"/>
<feGaussianBlur stdDeviation="5.6858"/>
<feColorMatrix type="matrix" values="0 0 0 0 0 0 0 0 0 0 0 0 0 0 0 0 0 0 0.05 0"/>
<feBlend mode="normal" in2="effect3_dropShadow_285_4094" result="effect4_dropShadow_285_4094"/>
<feColorMatrix in="SourceAlpha" type="matrix" values="0 0 0 0 0 0 0 0 0 0 0 0 0 0 0 0 0 0 127 0" result="hardAlpha"/>
<feOffset dy="34.1148"/>
<feGaussianBlur stdDeviation="6.82296"/>
<feColorMatrix type="matrix" values="0 0 0 0 0 0 0 0 0 0 0 0 0 0 0 0 0 0 0.01 0"/>
<feBlend mode="normal" in2="effect4_dropShadow_285_4094" result="effect5_dropShadow_285_4094"/>
<feBlend mode="normal" in="SourceGraphic" in2="effect5_dropShadow_285_4094" result="shape"/>
</filter>
<filter id="filter6_d_285_4094" x="610.939" y="655.725" width="233.118" height="194.873" filterUnits="userSpaceOnUse" color-interpolation-filters="sRGB">
<feFlood flood-opacity="0" result="BackgroundImageFix"/>
<feColorMatrix in="SourceAlpha" type="matrix" values="0 0 0 0 0 0 0 0 0 0 0 0 0 0 0 0 0 0 127 0" result="hardAlpha"/>
<feOffset dy="23.7863"/>
<feGaussianBlur stdDeviation="20.0306"/>
<feComposite in2="hardAlpha" operator="out"/>
<feColorMatrix type="matrix" values="0 0 0 0 0 0 0 0 0 0 0 0 0 0 0 0 0 0 0.16 0"/>
<feBlend mode="normal" in2="BackgroundImageFix" result="effect1_dropShadow_285_4094"/>
<feBlend mode="normal" in="SourceGraphic" in2="effect1_dropShadow_285_4094" result="shape"/>
</filter>
<filter id="filter7_d_285_4094" x="621.939" y="221.725" width="196.122" height="196.122" filterUnits="userSpaceOnUse" color-interpolation-filters="sRGB">
<feFlood flood-opacity="0" result="BackgroundImageFix"/>
<feColorMatrix in="SourceAlpha" type="matrix" values="0 0 0 0 0 0 0 0 0 0 0 0 0 0 0 0 0 0 127 0" result="hardAlpha"/>
<feOffset dy="23.7863"/>
<feGaussianBlur stdDeviation="20.0306"/>
<feComposite in2="hardAlpha" operator="out"/>
<feColorMatrix type="matrix" values="0 0 0 0 0 0 0 0 0 0 0 0 0 0 0 0 0 0 0.16 0"/>
<feBlend mode="normal" in2="BackgroundImageFix" result="effect1_dropShadow_285_4094"/>
<feBlend mode="normal" in="SourceGraphic" in2="effect1_dropShadow_285_4094" result="shape"/>
</filter>
<filter id="filter8_d_285_4094" x="408.939" y="866.726" width="188.372" height="182.121" filterUnits="userSpaceOnUse" color-interpolation-filters="sRGB">
<feFlood flood-opacity="0" result="BackgroundImageFix"/>
<feColorMatrix in="SourceAlpha" type="matrix" values="0 0 0 0 0 0 0 0 0 0 0 0 0 0 0 0 0 0 127 0" result="hardAlpha"/>
<feOffset dy="23.7863"/>
<feGaussianBlur stdDeviation="20.0306"/>
<feComposite in2="hardAlpha" operator="out"/>
<feColorMatrix type="matrix" values="0 0 0 0 0 0 0 0 0 0 0 0 0 0 0 0 0 0 0.16 0"/>
<feBlend mode="normal" in2="BackgroundImageFix" result="effect1_dropShadow_285_4094"/>
<feBlend mode="normal" in="SourceGraphic" in2="effect1_dropShadow_285_4094" result="shape"/>
</filter>
<linearGradient id="paint0_linear_285_4094" x1="720" y1="0" x2="720" y2="1050" gradientUnits="userSpaceOnUse">
<stop stop-color="#4B6F8C"/>
<stop offset="0.591" stop-color="#15304D"/>
</linearGradient>
<linearGradient id="paint1_linear_285_4094" x1="675.717" y1="126.49" x2="728.331" y2="218.077" gradientUnits="userSpaceOnUse">
<stop stop-color="#927BE5"/>
<stop offset="1" stop-color="#512BD4"/>
</linearGradient>
<linearGradient id="paint2_linear_285_4094" x1="496.762" y1="890.56" x2="463.496" y2="988.836" gradientUnits="userSpaceOnUse">
<stop stop-color="#114A8B"/>
<stop offset="1" stop-color="#0669BC"/>
</linearGradient>
<linearGradient id="paint3_linear_285_4094" x1="507.159" y1="936.359" x2="499.464" y2="938.961" gradientUnits="userSpaceOnUse">
<stop stop-opacity="0.3"/>
<stop offset="0.071" stop-opacity="0.2"/>
<stop offset="0.321" stop-opacity="0.1"/>
<stop offset="0.623" stop-opacity="0.05"/>
<stop offset="1" stop-opacity="0"/>
</linearGradient>
<linearGradient id="paint4_linear_285_4094" x1="502.922" y1="887.693" x2="539.438" y2="984.979" gradientUnits="userSpaceOnUse">
<stop stop-color="#3CCBF4"/>
<stop offset="1" stop-color="#2892DF"/>
</linearGradient>
<clipPath id="clip0_285_4094">
<rect width="1440" height="1050" fill="white"/>
</clipPath>
</defs>
</svg>
